#!OML:ASF G:\JayActor3\Patient Classification 1\Patient 1\Session 2\male.ASF
:FULLY-SPECIFIED
:DEGREES
1583
root 15.8846 16.3397 -8.51236 1817.67 -99.9265 -22.3702
lowerback -0.58596 -6.53164 -8.95374
upperback -0.058279 -8.86355 6.16082
thorax 2.62633 -4.69213 11.181
lowerneck -13.6591 -2.68289 0.304091
upperneck 29.2214 -6.09985 3.01861
head 11.9423 -2.73155 0.122645
rclavicle 3.5334e-014 9.54166e-015
rhumerus 47.1796 -27.8564 14.5105
rradius 79.201
rwrist -19.1442
rhand -33.912 20.0777
rfingers 7.12502
rthumb -7.09459 -9.78338
lclavicle 3.5334e-014 9.54166e-015
lhumerus 48.1055 26.3627 6.9547
lradius 96.7375
lwrist 49.2574
lhand -14.075 9.89228
lfingers 7.12502
lthumb 12.0568 39.525
rfemur -32.5047 -3.12115 21.819
rtibia 41.1559
rfoot -1.18319 0.457039
rtoes 20.5623
lfemur 35.7589 15.8125 -30.256
ltibia 5.725e-014
lfoot 6.83244 6.45504
ltoes -31.886
1584
root 15.6456 16.3354 -8.51282 1817.27 -99.4375 -22.135
lowerback -0.944683 -6.60511 -8.8274
upperback 0.00464387 -8.95378 6.33734
thorax 2.92869 -4.76267 11.2441
lowerneck -13.253 -2.68273 0.130918
upperneck 29.9012 -6.13363 2.86247
head 12.1287 -2.80692 0.08699
rclavicle 1.09332e-013 -9.06458e-014
rhumerus 47.4113 -27.7679 14.4713
rradius 79.4259
rwrist -18.9702
rhand -33.9306 20.0995
rfingers 7.12502
rthumb -7.1126 -9.76097
lclavicle 1.09332e-013 -9.06458e-014
lhumerus 47.8916 26.0453 6.9978
lradius 96.9183
lwrist 49.0269
lhand -14.1381 9.78893
lfingers 7.12502
lthumb 11.996 39.4252
rfemur -31.6321 -2.28184 21.7579
rtibia 41.8352
rfoot -2.71365 -0.103559
rtoes 21.6492
lfemur 36.6117 15.4466 -29.8438
ltibia 1.01778e-013
lfoot 8.58957 6.86331
ltoes -31.1272
1585
root 15.4093 16.3411 -8.51332 1816.4 -98.851 -21.4059
lowerback -1.30365 -6.69043 -8.63167
upperback 0.0782418 -9.06586 6.53386
thorax 3.24121 -4.8449 11.2858
lowerneck -12.8495 -2.68623 -0.025991
upperneck 30.601 -6.20279 2.75545
head 12.3289 -2.89254 0.0606384
rclavicle 1.33881e-013 -4.13472e-014
rhumerus 47.6257 -27.7226 14.3263
rradius 79.7057
rwrist -18.7893
rhand -33.9448 20.1168
rfingers 7.12502
rthumb -7.12625 -9.74319
lclavicle 1.33881e-013 -4.13472e-014
lhumerus 47.7327 25.7851 7.01485
lradius 97.1554
lwrist 48.79
lhand -14.2178 9.6877
lfingers 7.12502
lthumb 11.9191 39.3284
rfemur -30.7782 -1.43119 21.8049
rtibia 42.4573
rfoot -4.18511 -0.949616
rtoes 22.4652
lfemur 37.3843 15.0049 -29.3501
ltibia 9.54166e-015
lfoot 10.6441 7.5299
ltoes -29.9512
1586
root 15.1785 16.3545 -8.51491 1815.38 -98.1894 -20.4788
lowerback -1.66204 -6.78445 -8.43967
upperback 0.156848 -9.19324 6.7302
thorax 3.56377 -4.9353 11.3269
lowerneck -12.4696 -2.69768 -0.160282
upperneck 31.3077 -6.30886 2.68666
head 12.542 -2.98818 0.0382142
rclavicle -1.3418e-014 7.31528e-014
rhumerus 47.7891 -27.7281 14.0959
rradius 80.0378
rwrist -18.5964
rhand -33.9512 20.1314
rfingers 7.12502
rthumb -7.13248 -9.72846
lclavicle -1.3418e-014 7.31528e-014
lhumerus 47.647 25.6045 7.00505
lradius 97.4468
lwrist 48.5784
lhand -14.3021 9.59712
lfingers 7.12502
lthumb 11.8378 39.2425
rfemur -29.974 -0.664341 21.903
rtibia 43.0114
rfoot -5.54207 -1.84163
rtoes 23.1503
lfemur 38.0406 14.4893 -28.8505
ltibia 9.54166e-014
lfoot 12.9932 8.44107
ltoes -28.3045
1587
root 14.9555 16.3727 -8.5184 1814.64 -97.4772 -19.7841
lowerback -2.01718 -6.88083 -8.32505
upperback 0.238741 -9.32305 6.90283
thorax 3.89771 -5.0277 11.3855
lowerneck -12.1214 -2.72036 -0.27404
upperneck 31.995 -6.45092 2.65707
head 12.7595 -3.09207 0.0210612
rclavicle 8.04084e-014 -1.59028e-014
rhumerus 47.8657 -27.7927 13.8196
rradius 80.4131
rwrist -18.3941
rhand -33.9315 20.1483
rfingers 7.12502
rthumb -7.11342 -9.71219
lclavicle 8.04084e-014 -1.59028e-014
lhumerus 47.6485 25.5145 6.96799
lradius 97.7833
lwrist 48.3788
lhand -14.4096 9.5259
lfingers 7.12502
lthumb 11.7342 39.1772
rfemur -29.2276 -0.0804322 21.9843
rtibia 43.4894
rfoot -6.79812 -2.55551
rtoes 23.5948
lfemur 38.5598 13.9075 -28.4217
ltibia -3.18055e-014
lfoot 15.6229 9.5415
ltoes -26.2476
1588
root 14.7411 16.3937 -8.52339 1814.5 -96.7299 -19.6392
lowerback -2.34568 -6.97124 -8.30809
upperback 0.328708 -9.44192 7.03648
thorax 4.23251 -5.1151 11.4609
lowerneck -11.8042 -2.75532 -0.376852
upperneck 32.6403 -6.62132 2.66214
head 12.9716 -3.20133 0.0109327
rclavicle -1.02672e-013 -7.95139e-015
rhumerus 47.837 -27.9172 13.5375
rradius 80.8176
rwrist -18.18
rhand -33.8938 20.1721
rfingers 7.12502
rthumb -7.07709 -9.68955
lclavicle -1.02672e-013 -7.95139e-015
lhumerus 47.7417 25.5161 6.91654
lradius 98.1545
lwrist 48.187
lhand -14.5329 9.46919
lfingers 7.12502
lthumb 11.6153 39.1273
rfemur -28.5053 0.253409 22.0099
rtibia 43.875
rfoot -7.98676 -2.99429
rtoes 23.6874
lfemur 38.9599 13.2736 -28.0951
ltibia -8.90555e-014
lfoot 18.484 10.7684
ltoes -23.8827
1589
root 14.5346 16.4164 -8.52841 1814.99 -95.9612 -20.1128
lowerback -2.61451 -7.05489 -8.35698
upperback 0.421653 -9.55057 7.13713
thorax 4.54033 -5.19627 11.5458
lowerneck -11.4797 -2.78654 -0.504053
upperneck 33.2327 -6.78192 2.69221
head 13.165 -3.30543 0.017168
rclavicle 5.92378e-014 -5.24792e-014
rhumerus 47.7439 -28.0812 13.2683
rradius 81.2396
rwrist -17.9585
rhand -33.843 20.1981
rfingers 7.12502
rthumb -7.02804 -9.66523
lclavicle 5.92378e-014 -5.24792e-014
lhumerus 47.87 25.5845 6.84409
lradius 98.5511
lwrist 47.9995
lhand -14.6863 9.41257
lfingers 7.12502
lthumb 11.4673 39.0789
rfemur -27.7473 0.300365 21.9857
rtibia 44.1376
rfoot -9.10213 -3.14571
rtoes 23.4414
lfemur 39.2812 12.6106 -27.8527
ltibia 3.49861e-014
lfoot 21.5023 12.0545
ltoes -21.341
1590
root 14.3335 16.4414 -8.53166 1815.85 -95.1895 -20.9953
lowerback -2.81457 -7.1178 -8.39248
upperback 0.532706 -9.63305 7.20313
thorax 4.81384 -5.26155 11.5953
lowerneck -11.1555 -2.80571 -0.650311
upperneck 33.7748 -6.91283 2.72743
head 13.3402 -3.39703 0.0342472
rclavicle 6.52014e-014 3.33958e-014
rhumerus 47.5909 -28.2796 13.0425
rradius 81.6591
rwrist -17.738
rhand -33.7781 20.2319
rfingers 7.12502
rthumb -6.96541 -9.63352
lclavicle 6.52014e-014 3.33958e-014
lhumerus 48.0254 25.7052 6.7637
lradius 98.9612
lwrist 47.7961
lhand -14.8656 9.34578
lfingers 7.12502
lthumb 11.2944 39.0217
rfemur -26.8831 0.0757281 21.9535
rtibia 44.2388
rfoot -10.1382 -3.06448
rtoes 23.0379
lfemur 34.0133 12.0287 -27.5817
ltibia 10.217
lfoot 19.9224 12.4592
ltoes -18.8097
1591
root 14.1357 16.4696 -8.53205 1816.62 -94.4261 -21.8221
lowerback -2.94657 -7.14625 -8.33775
upperback 0.663113 -9.6745 7.24095
thorax 5.03794 -5.30065 11.5747
lowerneck -10.8196 -2.80792 -0.81727
upperneck 34.269 -7.00064 2.75438
head 13.4936 -3.47266 0.0596337
rclavicle -8.25453e-014 8.42847e-014
rhumerus 47.3857 -28.4897 12.886
rradius 82.0593
rwrist -17.5287
rhand -33.7152 20.2784
rfingers 7.12502
rthumb -6.90467 -9.58896
lclavicle -8.25453e-014 8.42847e-014
lhumerus 48.2009 25.8538 6.69697
lradius 99.3776
lwrist 47.5783
lhand -15.0638 9.27379
lfingers 7.12502
lthumb 11.1032 38.9601
rfemur -25.8711 -0.355466 21.9649
rtibia 44.1478
rfoot -11.0848 -2.87325
rtoes 22.5828
lfemur 30.9713 12.1615 -26.7018
ltibia 16.5358
lfoot 20.3579 12.2564
ltoes -16.3161
